<svg width="39" height="23" viewBox="0 0 39 23" fill="none" xmlns="http://www.w3.org/2000/svg">
<rect width="39" height="23" rx="3" fill="#F5F5F7"/>
<path d="M12.45 8.84V8.37H14.97V8.84L14.12 8.97V15.04H13.53L9.76 9.86V14.39L10.86 14.53V15H8.34V14.53L9.19 14.41V9.07L9.07 8.91L8.37 8.84V8.37H10.26L13.55 12.89V8.97L12.45 8.84ZM15.6068 8.84V8.37H20.6468L20.7168 10.12H20.0168L19.8068 8.9H17.7768C17.7701 9.32 17.7635 9.74 17.7568 10.16C17.7568 10.5733 17.7568 10.9633 17.7568 11.33H19.0468L19.1768 10.46H19.6968V12.72H19.1768L19.0568 11.86H17.7568C17.7568 12.34 17.7568 12.7933 17.7568 13.22C17.7635 13.64 17.7701 14.0567 17.7768 14.47H20.0068L20.2168 13.25H20.9168L20.8468 15H15.6068V14.53L16.4468 14.44C16.4601 14.0267 16.4668 13.6067 16.4668 13.18C16.4668 12.7533 16.4668 12.3267 16.4668 11.9V11.47C16.4668 11.05 16.4668 10.63 16.4668 10.21C16.4668 9.78333 16.4601 9.35667 16.4468 8.93L15.6068 8.84ZM28.5457 8.84V8.37H30.7457V8.84L29.9357 8.97L28.2057 15.04H27.5157L25.9357 10.16L24.4257 15.04H23.7357L21.9357 8.92L21.2057 8.84V8.37H24.1157V8.84L23.2857 8.94L24.4157 13.27L25.7857 8.94L24.9157 8.84V8.37H27.7657V8.84L26.8257 8.95L28.1557 13.33L29.3657 8.96L28.5457 8.84Z" fill="#7247CA"/>
</svg>
